<svg width="592" height="435" viewBox="0 0 592 435" fill="none" xmlns="http://www.w3.org/2000/svg">
<path d="M351.975 393H12.7145C5.58199 393 0 402.732 0 414C0 425.268 5.8921 435 12.7145 435H352.285C359.418 435 365 425.268 365 414C365 402.732 359.108 393 351.975 393Z" fill="#4A4A4A"/>
<path d="M292.188 362.415L283.004 293.027C282.473 291.056 282.928 288.82 284.367 286.319L403.137 79.9457L431.21 31.1666C435.528 23.6621 442.614 18.5826 450.497 16.4588C454.438 15.397 458.644 15.3204 462.851 15.2438C465.087 15.6982 466.338 16.418 468.574 16.8723L469.559 16.6069C470.81 17.3267 473.311 18.7663 475.547 19.2207L494.574 31.0032L513.335 41.8004C528.344 50.4382 533.653 70.1438 525.281 86.1381L496.943 133.932L378.173 340.305C376.734 342.806 375.028 344.323 373.058 344.854L306.477 372.304L305.492 372.569C302.536 373.366 300.3 372.911 297.799 371.472C295.297 370.032 293.781 368.327 292.985 365.371C292.719 364.386 292.454 363.4 292.188 362.415Z" fill="#FFC10A"/>
<path d="M403.857 78.695L431.21 31.1666C435.528 23.6621 442.614 18.5826 450.497 16.4588C458.379 14.3351 467.057 15.1672 475.547 19.2207L494.574 31.0032L513.335 41.8004C528.344 50.4382 533.653 70.1438 525.281 86.1381L496.943 133.932C499.822 128.929 498.229 123.017 493.226 120.138L484.471 115.099L455.704 98.5435L418.181 76.949C415.68 75.5094 413.444 75.055 410.488 75.8514L409.503 76.1169C408.518 76.3824 407.532 76.6478 406.812 77.8986C404.576 77.4442 403.857 78.695 403.857 78.695C403.137 79.9457 403.137 79.9457 403.857 78.695Z" fill="#F44236"/>
</svg>
