<svg width="32" height="30" viewBox="0 0 32 30" fill="none" xmlns="http://www.w3.org/2000/svg">
<path d="M19.7788 13.8949L7.32617 11.7012V27.9113C7.32632 28.0874 7.36115 28.2617 7.42868 28.4244C7.49621 28.587 7.59511 28.7348 7.71974 28.8592C7.84436 28.9836 7.99228 29.0823 8.15503 29.1495C8.31779 29.2168 8.49219 29.2513 8.6683 29.2512H30.1558C30.3321 29.2516 30.5067 29.2173 30.6697 29.1502C30.8328 29.083 30.9809 28.9844 31.1058 28.86C31.2307 28.7355 31.3298 28.5877 31.3974 28.4249C31.4651 28.2621 31.5 28.0876 31.5002 27.9113V21.9387L19.7788 13.8949Z" fill="#185C37"/>
<path d="M19.7788 4.72335e-07H8.6683C8.49219 -0.000147327 8.31779 0.0343923 8.15503 0.101647C7.99228 0.168902 7.84436 0.267556 7.71974 0.391975C7.59511 0.516393 7.49621 0.664141 7.42868 0.826782C7.36115 0.989423 7.32632 1.16377 7.32617 1.33988V7.3125L19.7788 14.625L26.3724 16.8187L31.5002 14.625V7.3125L19.7788 4.72335e-07Z" fill="#21A366"/>
<path d="M7.32617 7.3125H19.7788V14.625H7.32617V7.3125Z" fill="#107C41"/>
<path opacity="0.1" d="M16.2384 5.84766H7.32617V24.1289H16.2384C16.5935 24.1271 16.9337 23.9855 17.1851 23.7347C17.4365 23.4839 17.579 23.1441 17.5817 22.789V7.18753C17.579 6.83241 17.4365 6.49264 17.1851 6.24185C16.9337 5.99105 16.5935 5.84942 16.2384 5.84766Z" fill="black"/>
<path opacity="0.2" d="M15.506 6.58008H7.32617V24.8613H15.506C15.8612 24.8596 16.2013 24.7179 16.4527 24.4671C16.7042 24.2163 16.8466 23.8766 16.8493 23.5214V7.91995C16.8466 7.56483 16.7042 7.22507 16.4527 6.97427C16.2013 6.72347 15.8612 6.58184 15.506 6.58008Z" fill="black"/>
<path opacity="0.2" d="M15.506 6.58008H7.32617V23.3988H15.506C15.8612 23.3971 16.2013 23.2554 16.4527 23.0046C16.7042 22.7538 16.8466 22.4141 16.8493 22.0589V7.91995C16.8466 7.56483 16.7042 7.22507 16.4527 6.97427C16.2013 6.72347 15.8612 6.58184 15.506 6.58008Z" fill="black"/>
<path opacity="0.2" d="M14.7737 6.58008H7.32617V23.3988H14.7737C15.1288 23.3971 15.4689 23.2554 15.7203 23.0046C15.9718 22.7538 16.1143 22.4141 16.1169 22.0589V7.91995C16.1143 7.56483 15.9718 7.22507 15.7203 6.97427C15.4689 6.72347 15.1288 6.58184 14.7737 6.58008Z" fill="black"/>
<path d="M1.34325 6.58008H14.7735C15.1293 6.57978 15.4706 6.72074 15.7225 6.97198C15.9743 7.22323 16.1161 7.5642 16.1167 7.91995V21.3277C16.1161 21.6835 15.9743 22.0244 15.7225 22.2757C15.4706 22.5269 15.1293 22.6679 14.7735 22.6676H1.34325C1.16705 22.6679 0.992524 22.6334 0.82964 22.5663C0.666756 22.4991 0.51871 22.4004 0.393963 22.276C0.269216 22.1516 0.170214 22.0038 0.102615 21.8411C0.035017 21.6783 0.000147568 21.5039 0 21.3277V7.91995C0.000147568 7.74376 0.035017 7.56932 0.102615 7.4066C0.170214 7.24389 0.269216 7.09609 0.393963 6.97166C0.51871 6.84722 0.666756 6.74859 0.82964 6.6814C0.992524 6.61421 1.16705 6.57978 1.34325 6.58008Z" fill="url(#paint0_linear_2_622)"/>
<path d="M4.1626 18.9838L6.98747 14.6143L4.39997 10.2695H6.47785L7.88972 13.0517C8.02022 13.3149 8.11472 13.5107 8.15747 13.6412H8.1766C8.26885 13.4297 8.36672 13.226 8.4691 13.0269L9.97885 10.274H11.8913L9.23747 14.594L11.9588 18.9872H9.92372L8.29247 15.9373C8.21673 15.8062 8.15237 15.6688 8.1001 15.5267H8.0731C8.02553 15.6651 7.96211 15.7976 7.8841 15.9215L6.20447 18.9838H4.1626Z" fill="white"/>
<path d="M30.1569 1.88854e-06H19.7788V7.3125H31.5002V1.33988C31.5 1.16368 31.4652 0.989238 31.3976 0.826524C31.33 0.663809 31.231 0.516011 31.1062 0.391578C30.9815 0.267144 30.8334 0.168514 30.6705 0.101326C30.5077 0.0341367 30.3331 -0.000293807 30.1569 1.88854e-06Z" fill="#33C481"/>
<path d="M19.7788 14.625H31.5002V21.9375H19.7788V14.625Z" fill="#107C41"/>
<defs>
<linearGradient id="paint0_linear_2_622" x1="2.80575" y1="5.52708" x2="13.311" y2="23.7206" gradientUnits="userSpaceOnUse">
<stop stop-color="#18884F"/>
<stop offset="0.5" stop-color="#117E43"/>
<stop offset="1" stop-color="#0B6631"/>
</linearGradient>
</defs>
</svg>
