<svg width="130" height="130" viewBox="0 0 130 130" fill="none" xmlns="http://www.w3.org/2000/svg">
<g clip-path="url(#clip0_121_442)">
<path d="M110.928 110.924C136.304 85.5479 136.304 44.4052 110.928 19.0292C85.552 -6.34682 44.4093 -6.34682 19.0333 19.0292C-6.34273 44.4052 -6.34273 85.5479 19.0333 110.924C44.4093 136.3 85.552 136.3 110.928 110.924Z" fill="#B31922"/>
<path d="M74.8072 122.792C106.737 117.368 128.223 87.0864 122.798 55.1571C117.374 23.2277 87.0921 1.74143 55.1628 7.16608C23.2335 12.5907 1.74716 42.8721 7.17181 74.8015C12.5965 106.731 42.8779 128.217 74.8072 122.792Z" fill="#E30F24"/>
<path d="M64.9803 102.482C46.4203 102.482 31.3203 87.3818 31.3203 68.8218C31.3203 59.6918 34.9203 51.1418 41.4503 44.7518C43.7403 42.5118 47.4103 42.5518 49.6403 44.8418C51.8803 47.1318 51.8403 50.8018 49.5503 53.0318C45.2603 57.2218 42.9003 62.8218 42.9003 68.8118C42.9003 80.9818 52.8003 90.8818 64.9703 90.8818C77.1403 90.8818 87.0403 80.9818 87.0403 68.8118C87.0403 62.8318 84.6803 57.2218 80.3903 53.0318C78.1003 50.7918 78.0603 47.1218 80.3003 44.8418C82.5403 42.5518 86.2103 42.5118 88.4903 44.7518C95.0203 51.1418 98.6203 59.6918 98.6203 68.8218C98.6403 87.3818 83.5403 102.482 64.9803 102.482Z" fill="white"/>
<path d="M64.9797 66.3308C61.7797 66.3308 59.1797 63.7408 59.1797 60.5308V37.3508C59.1797 34.1508 61.7697 31.5508 64.9797 31.5508C68.1797 31.5508 70.7797 34.1408 70.7797 37.3508V60.5308C70.7697 63.7408 68.1797 66.3308 64.9797 66.3308Z" fill="white"/>
</g>
<defs>
<clipPath id="clip0_121_442">
<rect width="129.95" height="129.95" fill="white"/>
</clipPath>
</defs>
</svg>
