<svg width="35" height="32" viewBox="0 0 35 32" fill="none" xmlns="http://www.w3.org/2000/svg">
<path d="M1.20703 18.1016H33.791V19.3086H1.20703V18.1016Z" fill="white"/>
<path d="M33.791 8.45312H34.998V26.5586H33.791V8.45312Z" fill="#446EB1"/>
<path d="M6.03516 0H7.24219V8.44922H6.03516V0ZM28.9629 0H30.1699V8.44922H28.9629V0Z" fill="#446EB1"/>
<path d="M1.20703 19.3086H33.791V20.5156H1.20703V19.3086Z" fill="#79ACF9"/>
<path d="M12.0703 24.1367H22.9336V25.3438H12.0703V24.1367Z" fill="#79ACF9"/>
<path d="M0 8.45312H1.20703V26.5586H0V8.45312Z" fill="#446EB1"/>
<path d="M1.20703 8.45312H34.998V9.66016H1.20703V8.45312Z" fill="#446EB1"/>
<path d="M1.20703 9.65625H33.791V14.4844H1.20703V9.65625Z" fill="#F8FCFF"/>
<path d="M1.20703 14.4805H33.791V19.3086H1.20703V14.4805Z" fill="#E1F0FF"/>
<path d="M27.7559 10.8594H30.1699V13.2734H27.7559V10.8594Z" fill="#79ACF9"/>
<path d="M7.24219 1.21094H28.9629V8.45313H7.24219V1.21094Z" fill="white"/>
<path d="M7.24219 0H30.1699V1.20703H7.24219V0ZM3.62109 6.03516H4.82812V8.44922H3.62109V6.03516Z" fill="#446EB1"/>
<path d="M3.62109 6.03906H6.03516V7.24609H3.62109V6.03906ZM30.1699 6.03906H32.584V7.24609H30.1699V6.03906Z" fill="#446EB1"/>
<path d="M31.377 6.03906H32.584V8.45312H31.377V6.03906Z" fill="#446EB1"/>
<path d="M1.20703 20.5156H33.791V21.7227H1.20703V20.5156Z" fill="#6D9EE8"/>
<path d="M1.20703 21.7227H4.82812V25.3437H1.20703V21.7227ZM30.1699 21.7227H33.791V25.3437H30.1699V21.7227ZM4.82812 21.7227H30.1699V22.9297H4.82812V21.7227Z" fill="#446EB1"/>
<path d="M0 25.3438H6.03516V26.5508H0V25.3438ZM28.9629 25.3438H34.9981V26.5508H28.9629V25.3438Z" fill="#6D9EE8"/>
<path d="M4.82812 22.9297H6.03516V31.3789H4.82812V22.9297ZM28.9629 22.9297H30.1699V31.3789H28.9629V22.9297Z" fill="#446EB1"/>
<path d="M6.03516 30.1719H28.9629V31.3789H6.03516V30.1719Z" fill="#446EB1"/>
<path d="M10.8633 26.5508H24.1406V27.7578H10.8633V26.5508Z" fill="#79ACF9"/>
</svg>
