<svg width="28" height="28" viewBox="0 0 28 28" fill="none" xmlns="http://www.w3.org/2000/svg">
<path d="M15.8306 23.8886C18.193 23.8886 20.5023 23.1881 22.4665 21.8757C24.4307 20.5632 25.9617 18.6977 26.8657 16.5152C27.7697 14.3327 28.0063 11.931 27.5454 9.61408C27.0845 7.29713 25.9469 5.16885 24.2765 3.49841C22.606 1.82797 20.4778 0.690393 18.1608 0.229515C15.8439 -0.231364 13.4422 0.00517453 11.2597 0.909213C9.07722 1.81325 7.21166 3.34418 5.89922 5.30841C4.58677 7.27264 3.8863 9.58195 3.8863 11.9443C3.8863 13.5128 4.19529 15.066 4.79552 16.5152C5.39575 17.9644 6.27563 19.2811 7.38472 20.3902C8.49381 21.4993 9.81054 22.3792 11.2597 22.9794C12.7089 23.5796 14.2621 23.8886 15.8306 23.8886ZM15.8306 2.39521C17.7129 2.39521 19.553 2.9534 21.1182 3.99918C22.6833 5.04495 23.9032 6.53137 24.6235 8.27044C25.3438 10.0095 25.5323 11.9231 25.1651 13.7693C24.7979 15.6155 23.8914 17.3113 22.5604 18.6423C21.2294 19.9733 19.5335 20.8799 17.6873 21.2471C15.8412 21.6143 13.9276 21.4258 12.1885 20.7055C10.4495 19.9851 8.96302 18.7653 7.91722 17.2001C6.87142 15.635 6.31322 13.795 6.31322 11.9126C6.31322 9.38841 7.31588 6.96764 9.10086 5.18278C10.8857 3.39793 13.3064 2.39521 15.8306 2.39521Z" fill="black"/>
<path d="M1.18875 27.7719C1.34499 27.7726 1.49997 27.7421 1.64432 27.6821C1.78866 27.6223 1.91968 27.5341 2.02945 27.4229L8.58057 20.8718C8.79075 20.6463 8.90511 20.3479 8.89972 20.0397C8.89433 19.7315 8.76933 19.4376 8.55138 19.2195C8.33344 19.0015 8.03935 18.8767 7.73115 18.8713C7.42294 18.8659 7.12473 18.9803 6.89917 19.1904L0.348047 25.7415C0.12534 25.9646 0.000188828 26.2669 0.000188828 26.5822C0.000188828 26.8974 0.12534 27.1998 0.348047 27.4229C0.457814 27.5341 0.588837 27.6223 0.733183 27.6821C0.87753 27.7421 1.03251 27.7726 1.18875 27.7719Z" fill="black"/>
</svg>
